<?xml version="1.0" encoding="UTF-8"?>
<!DOCTYPE svg PUBLIC "-//W3C//DTD SVG 1.1//EN" "http://www.w3.org/Graphics/SVG/1.1/DTD/svg11.dtd">
<!-- Creator: CorelDRAW X7 -->
<svg xmlns="http://www.w3.org/2000/svg" xml:space="preserve" width="501px" height="502px" version="1.1" style="shape-rendering:geometricPrecision; text-rendering:geometricPrecision; image-rendering:optimizeQuality; fill-rule:evenodd; clip-rule:evenodd"
viewBox="0 0 245 245"
 xmlns:xlink="http://www.w3.org/1999/xlink">
 <defs>
  <style type="text/css">
   <![CDATA[
    .fil7 {fill:none}
    .fil4 {fill:#3A6DA2}
    .fil5 {fill:#3F4CA6}
    .fil6 {fill:#416CA0}
    .fil8 {fill:#96582A}
    .fil0 {fill:#A9C5FC}
    .fil2 {fill:#E7A736}
    .fil3 {fill:#FCF55B}
    .fil1 {fill:white}
   ]]>
  </style>
 </defs>
 <g id="Layer_x0020_1">
  <metadata id="CorelCorpID_0Corel-Layer"/>
  <g id="_319815912">
   <rect class="fil0" width="245" height="245"/>
   <path class="fil1" d="M0 201l0 -70c4,-2 8,-3 12,-3 15,0 27,12 27,27 0,3 0,5 -1,8 8,3 14,11 14,21 0,12 -11,23 -23,23 -9,0 -16,-5 -20,-11 -3,2 -6,4 -9,5z"/>
   <path class="fil1" d="M245 43l0 107c-4,1 -9,2 -13,2 -13,0 -25,-7 -32,-18 -5,3 -12,5 -18,5 -23,0 -42,-19 -42,-42 0,-23 19,-41 42,-41 5,0 9,0 14,2 1,-14 12,-24 26,-24 9,0 16,4 21,10 1,0 1,-1 2,-1z"/>
   <path class="fil1" d="M100 76c5,2 8,7 8,12 0,7 -6,12 -13,12 -4,0 -8,-2 -10,-6 -3,2 -6,4 -10,4 0,0 -1,0 -2,-1 -3,8 -10,13 -19,13 -7,0 -13,-4 -17,-10 -3,2 -6,3 -10,3 -12,0 -22,-11 -22,-23 0,-13 10,-23 22,-23 3,0 5,1 8,2 0,-8 7,-13 14,-13 5,0 9,2 11,5 1,0 1,0 2,0 7,0 12,5 14,11 2,-3 6,-4 10,-4 8,0 15,6 15,14 0,2 0,3 -1,4z"/>
  </g>
  <g id="_319816152">
   <path class="fil2" d="M163 106c7,-3 13,-3 19,0l1 27 -21 0 1 -27z"/>
   <path class="fil2" d="M9 167l0 77 56 0 56 0 0 -77c5,-18 0,-34 -18,-47 -9,-7 -22,-13 -37,-17l0 -1c1,0 2,-1 2,-2 0,-1 -1,-1 -2,-2l0 -1c1,-1 1,-1 1,-2 0,0 -1,-1 -1,-1l0 -1c0,0 1,0 1,-1 0,0 -1,-1 -1,-1l0 -2c0,0 0,0 0,0 0,-1 0,-1 -1,-1l0 -1c1,0 1,0 1,-1 0,0 0,-1 -1,-1l0 -6 0 6c-1,0 -1,1 -1,1 0,1 0,1 0,1l0 1c0,0 0,0 0,1 0,0 0,0 0,0l0 2c0,0 -1,1 -1,1 0,1 1,1 1,1l0 1c-1,0 -1,1 -1,1 0,1 0,1 1,2l0 1c-1,1 -2,1 -2,2 0,1 1,2 1,2l0 1c-15,4 -27,10 -36,17 -18,13 -23,29 -18,47z"/>
   <polygon class="fil3" points="128,133 238,133 238,245 234,245 133,245 128,245 "/>
   <path class="fil2" d="M144 209c2,-16 18,-27 39,-37 23,10 38,22 38,37l0 36 -77 0 0 -36z"/>
   <path class="fil4" d="M148 169l32 0c-15,7 -26,14 -32,24l0 -24z"/>
   <path class="fil4" d="M186 169l34 0 0 27c-4,-11 -17,-20 -34,-27z"/>
   <polygon class="fil5" points="146,154 220,154 220,164 146,164 "/>
   <polygon class="fil6" points="140,146 227,146 227,245 224,245 224,149 142,149 142,245 140,245 "/>
   <polygon class="fil6" points="128,133 238,133 238,245 234,245 234,138 133,138 133,245 128,245 "/>
   <path class="fil7" d="M182 110l0 6c-8,-3 -14,-3 -19,0l0 -6c8,-3 14,-3 19,0z"/>
   <path class="fil2" d="M157 93c1,-1 2,-1 3,-2l0 -8 -3 2 0 8zm6 14l-7 -10 0 0 0 -4 0 0 0 -6 0 0 0 0 0 -1 0 -2 0 0 0 -2 4 -2 3 -2 5 0 4 -1 5 1 5 0 3 2 3 2 1 2 0 0 0 1 0 2 0 0 0 -1 0 8 0 0 0 3 0 0 -7 10 0 0 0 -1c-6,-3 -12,-3 -19,0l0 1 0 0zm-3 -16c2,-1 4,-2 6,-2l0 -8 -3 1 -3 1 0 8zm7 -2c2,-1 5,-1 7,-1l0 -8 -2 0 -4 1 -1 0 0 8zm8 -1c2,1 4,1 6,2l0 -9 -4 0 -2 0 0 7zm7 2c2,1 4,1 6,2l0 -7 -3 -2 -3 -1 0 8z"/>
   <path class="fil8" d="M167 56c-1,-3 1,-8 5,-9l0 0c0,0 0,0 0,0 0,0 0,0 0,0l0 -1c0,0 0,0 0,0 0,0 0,0 0,0l0 -1c0,0 0,0 0,0 0,0 0,0 0,0l0 -1c0,0 0,0 0,0 0,0 0,0 0,0l0 0c0,0 0,0 0,0 0,0 0,0 0,-1l0 -1 1 1c0,1 0,1 0,1 0,0 0,0 0,0l0 0c0,0 0,0 0,0 0,0 0,0 0,0l0 1c0,0 0,0 0,0 0,0 0,0 0,0l0 1c0,0 0,0 0,0 0,0 0,0 0,0l0 1c0,0 0,0 0,0 0,0 0,0 0,0 4,1 6,6 5,9l0 0 0 -1c-4,-2 -7,-2 -10,0l-1 1 0 0z"/>
   <path class="fil2" d="M166 77l2 -22c3,-2 6,-2 10,0l1 22 -2 -1 -4 0 -5 0 -2 1z"/>
   <path class="fil4" d="M65 202l-1 -1 -1 -1 -1 0c-1,0 -2,-1 -2,-2 -8,0 -15,1 -22,2 -1,0 -2,-1 -2,-3l0 0c-1,0 -2,-1 -2,-2l0 -1 -1 -1 -1 -1 1 -1 1 -1 0 -1c0,-1 1,-2 2,-2l0 -1c0,-1 1,-2 2,-2 6,-1 13,-1 19,-1 0,-1 1,-2 2,-2l1 0c0,-1 1,-2 2,-2l1 0 1 -1 1 -1 1 1 1 1 1 0c1,0 2,1 2,2l0 0c2,0 2,1 3,2 6,0 12,0 19,1 1,0 2,1 2,2l0 1c1,0 2,1 2,2l0 1 1 1 1 1 -1 1 -1 1 0 1c0,1 -1,2 -2,2l0 0c0,2 -1,3 -2,3 -7,-1 -15,-2 -22,-2 0,1 -1,2 -2,2l-1 0 -1 1 -1 1z"/>
   <path class="fil6" d="M9 177l0 -11c37,-14 74,-14 112,0l0 11c-37,-11 -75,-11 -112,0z"/>
   <path class="fil3" d="M165 209c1,-8 8,-13 18,-17 10,4 17,10 18,17l0 36 -36 0 0 -36z"/>
   <path class="fil3" d="M203 216c1,-4 4,-6 8,-8 5,2 8,4 9,8l0 29 -17 0 0 -29z"/>
   <path class="fil3" d="M146 216c1,-4 4,-6 8,-8 5,2 9,4 9,8l0 29 -17 0 0 -29z"/>
  </g>
 </g>
</svg>
